<svg xmlns="http://www.w3.org/2000/svg" viewBox="0 0 161.56 161.56"><defs><style>.cls-1{fill:#d5b89b;}.cls-2{fill:#2d9284;}</style></defs><g id="Layer_2" data-name="Layer 2"><g id="레이어_1" data-name="레이어 1"><circle class="cls-1" cx="80.78" cy="80.78" r="80.78"/><path class="cls-2" d="M42.48,97.94c1.51,0,2.11-.71,2.11-1.87S44,94.2,42.48,94.2h-.69v3.74Zm-1.89-4.79h1.93c2.12,0,3.29,1.14,3.29,2.92S44.63,99,42.52,99h-.73v1.83h-1.2Z"/><path class="cls-2" d="M49.47,98.12v-5h1.2v4.9c0,1.23.6,1.79,1.72,1.79a1.56,1.56,0,0,0,1.73-1.79v-4.9h1.19v5a2.66,2.66,0,0,1-2.92,2.8,2.65,2.65,0,0,1-2.92-2.8"/><path class="cls-2" d="M58.62,99.33l1-.54a1.9,1.9,0,0,0,1.76,1.07c.77,0,1.32-.42,1.32-1s-.45-1-1.28-1.33l-.51-.22c-1.11-.5-1.79-1.06-1.79-2.25a2,2,0,0,1,2.15-1.94,2.26,2.26,0,0,1,2.17,1.2l-.94.58a1.27,1.27,0,0,0-1.23-.75.9.9,0,0,0-1,.89c0,.58.33.83,1.11,1.17l.49.23c1.31.57,2,1.18,2,2.41s-1,2.12-2.49,2.12a2.88,2.88,0,0,1-2.76-1.59"/><path class="cls-2" d="M66.93,99.33l1-.54a1.9,1.9,0,0,0,1.76,1.07c.78,0,1.33-.42,1.33-1s-.45-1-1.29-1.33l-.5-.22c-1.12-.5-1.79-1.06-1.79-2.25a2,2,0,0,1,2.15-1.94,2.25,2.25,0,0,1,2.16,1.2l-.93.58a1.29,1.29,0,0,0-1.23-.75.89.89,0,0,0-1,.89c0,.58.32.83,1.1,1.17l.5.23c1.3.57,2,1.18,2,2.41s-1.05,2.12-2.49,2.12a2.89,2.89,0,0,1-2.76-1.59"/><path class="cls-2" d="M77.73,98.39l-2.9-5.23h1.32l1.73,3.15a7.74,7.74,0,0,1,.46,1.1,11.62,11.62,0,0,1,.46-1.1l1.68-3.15h1.23l-2.78,5.17v2.49h-1.2Z"/><polygon class="cls-2" points="85.2 93.16 89.97 93.16 89.97 94.2 86.4 94.2 86.4 97.28 89.64 97.28 89.64 98.34 86.4 98.34 86.4 100.81 85.2 100.81 85.2 93.16"/><path class="cls-2" d="M100,97a2.73,2.73,0,1,0-2.72,2.86A2.71,2.71,0,0,0,100,97M93.3,97a4,4,0,1,1,4,3.93,3.87,3.87,0,0,1-4-3.93"/><path class="cls-2" d="M111.28,97a2.73,2.73,0,1,0-2.73,2.86A2.71,2.71,0,0,0,111.28,97m-6.68,0a4,4,0,1,1,4,3.93,3.87,3.87,0,0,1-4-3.93"/><polygon class="cls-2" points="117.51 94.2 115.23 94.2 115.23 93.16 120.97 93.16 120.97 94.2 118.69 94.2 118.69 100.81 117.51 100.81 117.51 94.2"/><path class="cls-2" d="M60.62,112.26l.62.26a1.11,1.11,0,0,0,.15,1.22.69.69,0,0,0,1,.23c.31-.25.28-.57.14-1.1l-.08-.32a1.4,1.4,0,0,1,.38-1.68,1.18,1.18,0,0,1,1.71.28,1.35,1.35,0,0,1,.25,1.46l-.62-.22a.76.76,0,0,0-.11-.85.53.53,0,0,0-.79-.13c-.27.21-.27.46-.13,1l.08.32c.22.83.19,1.38-.38,1.84a1.31,1.31,0,0,1-1.92-.37,1.72,1.72,0,0,1-.29-1.89"/><path class="cls-2" d="M68.32,118.93l.29-1.51a6.64,6.64,0,0,1,.18-.7,4.89,4.89,0,0,1-.56.45l-1.25.9Zm1.14-3.3.07.05-.82,5-.63-.41.13-.68-1.76-1.14-.58.4-.57-.37Z"/><polygon class="cls-2" points="74.47 118.09 75.17 118.26 74.22 122.11 76.28 122.61 76.13 123.22 73.38 122.55 74.47 118.09"/><path class="cls-2" d="M84.54,121a1.61,1.61,0,0,0-1.79-1.54A1.71,1.71,0,1,0,84.54,121m-4,.39a2.37,2.37,0,1,1,2.58,2.12,2.31,2.31,0,0,1-2.58-2.12"/><path class="cls-2" d="M92.9,117.81a1.64,1.64,0,1,0-.63,2.29,1.62,1.62,0,0,0,.63-2.29m-3.53,1.89a2.36,2.36,0,1,1,3.2,1,2.31,2.31,0,0,1-3.2-1"/><path class="cls-2" d="M97.33,113.54c-.26,0-.67,0-.67,0s.32.21.54.39l1.93,1.64-.43.51-3.53-3,.06-.07,3.71-.16c.26,0,.66,0,.66,0s-.33-.22-.53-.39l-1.92-1.63.43-.51,3.53,3-.06.06Z"/><path class="cls-2" d="M80.78,110.36A1.22,1.22,0,1,1,82,109.14,1.22,1.22,0,0,1,80.78,110.36Zm0-2a.84.84,0,1,0,.84.83A.84.84,0,0,0,80.78,108.31Z"/><path class="cls-2" d="M61.73,74.77a1.67,1.67,0,0,0,0,3.33,1.67,1.67,0,1,0,0-3.33Zm0,2.71a1,1,0,1,1,1.05-1A1,1,0,0,1,61.73,77.48Zm8.58-2.71A1.67,1.67,0,1,0,72,76.43,1.66,1.66,0,0,0,70.31,74.77Zm0,2.71a1,1,0,1,1,1-1A1,1,0,0,1,70.31,77.48ZM95.52,45.85l2,3.63v3.65H88.69l-2.13,2V46.93l4.38-5H81.55l4.39,5V55.6H75.54V52.91c1.7-.11,3-1.17,3-2.44v-.31H71.89v.31c0,1.27,1.32,2.33,3,2.44V55.6H69.6V46.17h-.23l.55-1.81H70a1.45,1.45,0,1,0-.69-.18l-.59,2h-5.8V55.6h-2V37.72H56.07V58.85H53.63v3.87h2.44v5H53.84L39.6,77.51H57.92a4,4,0,0,0,7.62,0h1a4,4,0,0,0,7.62,0h5.82a8.32,8.32,0,0,0,12.61,0h6a8.31,8.31,0,0,0,12.6,0h3.08V75.72h1.52v-26h3.33l2.43-3.86Zm-53.93,31,9.57-6.57-6.72,6.57Zm3.74,0,6.77-6.62-4.36,6.62Zm3.16,0L53,70l-2.13,6.85Zm5.14,0H51.52l2.11-6.8Zm2.44,0H54.25V68.35h1.82Zm0-14.79H54.25V59.47h1.82Zm32.87-8.35h8.57V62.1h-11V56Zm-3.72-8.59-2.3-2.64h6.66l-2.31,2.64a1,1,0,0,0-.18-.31,1.13,1.13,0,0,0-.75-.39A1.1,1.1,0,0,0,85.22,45.16Zm.52.6a.55.55,0,0,1,0-.25.54.54,0,0,1,.59-.5.53.53,0,0,1,.38.2.55.55,0,0,1,.12.39.47.47,0,0,1,0,.16l-.23.27a.52.52,0,0,1-.32.07A.68.68,0,0,1,86,46Zm.2,10.46V62.1H75.54V56.22ZM72.55,50.78H77.9a3.11,3.11,0,0,1-5.35,0Zm-3.36-7.85a.83.83,0,1,1,.82.82A.83.83,0,0,1,69.19,42.93ZM69,47.49v4.82L67.87,51.2ZM64.9,52l1,1-1,1-1-1Zm0-.87-1-1,1-1,1,1Zm1.43,2.3.77.78H65.55Zm.44-.44,1-1,1,1-1,1Zm2.21.63v.59H68.4Zm-5.43-6.79h5l-1.5,5-.71.71-1-1,1.43-1.43L64.9,48.24,63.55,49.6Zm0,3.82.92.92-.92.91Zm0,2.85.71.71h-.71Zm0,1.32H69v.75H63.55ZM56.69,38.34h3.57v1H56.69Zm0,1.63h3.57v7.92L58.48,46.1l-1.79,1.78ZM58.48,50.9,60,52.42,58.48,54,57,52.42Zm0-.88L57,48.5,58.48,47,60,48.5,58.48,50Zm1.79,3v1.13H59.14Zm-1.34-2.58,1.34-1.34v2.69Zm-2.23-1.34L58,50.46l-1.34,1.35Zm0,3.92,1.12,1.13H56.69Zm0,1.74h3.57v.82H56.69Zm0,1.44H74.92V62.1H56.69Zm18.23,6.5v5h-8.6v-5Zm-18.23,0h9v5h-9ZM57.8,76.89H56.69V75.72h1.14a4.34,4.34,0,0,0-.06.71A3.67,3.67,0,0,0,57.8,76.89Zm3.93,2.89a3.35,3.35,0,1,1,3.35-3.35A3.35,3.35,0,0,1,61.73,79.78Zm4.64-2.89h-.7a3.67,3.67,0,0,0,0-.46,3.49,3.49,0,0,0-.07-.71h.78a3.49,3.49,0,0,0-.07.71A3.67,3.67,0,0,0,66.37,76.89Zm3.94,2.89a3.35,3.35,0,1,1,3.34-3.35A3.35,3.35,0,0,1,70.31,79.78ZM74,75.1a4,4,0,0,0-7.47,0h-1.1a4,4,0,0,0-7.47,0H56.69V68.35H74.92V75.1Zm.2,1.79a3.67,3.67,0,0,0,0-.46,4.34,4.34,0,0,0-.06-.71h4.54a8.62,8.62,0,0,0,.7,1.17Zm10.4-5.4a1.82,1.82,0,0,0,0,1.13l-5.23,3a7.67,7.67,0,0,1,0-7.17Zm-4.92-3.56a7.69,7.69,0,0,1,6.22-3.59v6A1.84,1.84,0,0,0,85,71ZM77.9,72.05a8.31,8.31,0,0,0,.58,3H75.54V68.35h3.23A8.35,8.35,0,0,0,77.9,72.05Zm8,7.72a7.69,7.69,0,0,1-6.22-3.59l5.23-3a1.84,1.84,0,0,0,1,.57Zm-.77-7.72a1.08,1.08,0,1,1,1.08,1.09A1.08,1.08,0,0,1,85.17,72.05Zm18.1.57-5.24,3a7.69,7.69,0,0,1-.88-3.5l5.74-.87.38.22a1.54,1.54,0,0,0-.1.56A1.56,1.56,0,0,0,103.27,72.62Zm-.26-2-4.67-2.69a7.7,7.7,0,0,1,6.22-3.59v6l0,0Zm-1,.15-4.86.74a7.49,7.49,0,0,1,.86-3Zm-5.49.83-2,.3a8.56,8.56,0,0,0-.87-3.55H97.4A8.18,8.18,0,0,0,96.54,71.6Zm.56,3.5H94a7.84,7.84,0,0,0,.56-2.57l2-.3A8.24,8.24,0,0,0,97.1,75.1ZM94,72l-5.72.86-.4-.23a1.65,1.65,0,0,0,0-1.13l5.23-3A7.69,7.69,0,0,1,94,72Zm0,.63a7.62,7.62,0,0,1-.87,3l-4-2.29ZM87.54,71a1.85,1.85,0,0,0-1-.57v-6a7.68,7.68,0,0,1,6.21,3.59Zm-1,8.82v-6l1.57-.24,4.64,2.68A7.68,7.68,0,0,1,86.56,79.77ZM93,76.89a8.62,8.62,0,0,0,.7-1.17h3.64a7.7,7.7,0,0,0,.7,1.17Zm11.52,2.88a7.7,7.7,0,0,1-6.22-3.59l5.24-3a1.78,1.78,0,0,0,1,.57Zm-.77-7.72a1.09,1.09,0,0,1,.84-1h.09l.15,0a1.09,1.09,0,1,1-1.08,1.08Zm2.68-.56,5.24-3a7.74,7.74,0,0,1,0,7.17l-5.24-3a1.56,1.56,0,0,0,.1-.57A1.54,1.54,0,0,0,106.47,71.49Zm-.31-.54a1.78,1.78,0,0,0-1-.57v-6a7.7,7.7,0,0,1,6.22,3.59Zm-1,8.82v-6a1.78,1.78,0,0,0,1-.57l5.24,3A7.7,7.7,0,0,1,105.18,79.77Zm8.45-2.88h-2a7.7,7.7,0,0,0,.7-1.17h1.27Zm1.52-1.79h-2.51a8.37,8.37,0,0,0-.3-6.75h2.81Zm0-7.37H112a8.33,8.33,0,0,0-14.26,0H93.38a8.33,8.33,0,0,0-14.26,0H75.54v-5h39.61Zm-17-5.63V49.71h1.53V62.1Zm7.13-2.63V62.1h-5V59.47Zm-5-.62V49.71h5v9.14Zm5.6,3.25V49.71h1.53V62.1ZM113,59.47V62.1h-5V59.47Zm-5-.62V49.71h5v9.14Zm7.12,3.25h-1.52V49.71h1.52Zm3.6-13H98l-1.44-2.62h23.84Z"/></g></g></svg>